<?xml version="1.0" encoding="utf-8"?>
<!-- Generator: Adobe Illustrator 22.1.0, SVG Export Plug-In . SVG Version: 6.00 Build 0)  -->
<svg version="1.1" id="Слой_1" xmlns="http://www.w3.org/2000/svg" xmlns:xlink="http://www.w3.org/1999/xlink" x="0px" y="0px"
	 viewBox="0 0 305.9 113" style="enable-background:new 0 0 305.9 113;" xml:space="preserve">
<style type="text/css">
	.st0{clip-path:url(#SVGID_2_);}
	.st1{fill:#050007;}
	.st2{fill:#1D1D1B;}
</style>
<title>Логотип</title>
<g>
	<g>
		<defs>
			<path id="SVGID_1_" d="M25.7,92.9c-7.5-7.3-11.8-17.4-11.8-28c0-1,0-2,0.1-3l24.2-0.2c0,0,1.9-1.3-0.3,13.1S26,92.4,26,92.4
				L25.7,92.9z M31.7,32.3c2.9-1.9,6.1-3.4,9.4-4.4c0.3,1.3,0.6,4.8-2.3,6.3C35.6,35.9,31.8,32.3,31.7,32.3z M91.4,61.8
				c0.1,1,0.1,2.1,0.1,3.2c0,15.6-9.3,29.6-23.6,35.7L68.1,62L91.4,61.8z M79.3,36.7c4.8,4.5,8.4,10.1,10.4,16.3L68,53.3
				c0,0-0.8-9,4.9-13.6C75.9,37.2,78,36.7,79.3,36.7L79.3,36.7z M52.7,26.1c6.4,0,12.7,1.6,18.3,4.6c-6.8,3.9-11.3,10.9-12,18.7
				c-1.4,14.4-0.1,52.1,0,53.8c-8.8,1.5-17.8-0.2-25.6-4.6l0.2-0.2c10-7.6,12.6-22.3,12.9-24.5s1-15.3,0.6-18s-3-2.6-3.9-2.6H15.7
				c1.9-5.9,5.1-11.3,9.5-15.7c2.4,3,8.7,9,17.5,4.2c8.1-4.4,7.8-11.6,6.9-15.5C50.6,26.2,51.7,26.1,52.7,26.1z"/>
		</defs>
		<clipPath id="SVGID_2_">
			<use xlink:href="#SVGID_1_"  style="overflow:visible;"/>
		</clipPath>
		<g class="st0">
			
				<image style="overflow:visible;" width="216" height="216" xlink:href="icons/1B1D3763.png"  transform="matrix(0.3583 0 0 0.3583 13.89 26.11)">
			</image>
		</g>
	</g>
</g>
<path class="st1" d="M285.6,53.3h4.9v16.9c0,9,6.2,9.2,9.9,9.2h5.5v-7.1c-2.8,0-6.8,0.3-6.8-3.1V53.3h6.3v-6.7h-6.3V36.3h-8.6v10.3
	h-4.9V53.3z"/>
<path class="st1" d="M237.5,46.6h4.9v-5.4c0-9,6.2-9.2,9.9-9.2h5.5v7c-2.9,0-6.8-0.3-6.8,3v4.5h6.3v6.7H251v26.2h-8.6V53.3h-4.9
	V46.6z"/>
<path class="st1" d="M227.5,79.4c-1.4,0.3-2.7,0.5-4.1,0.5c-1.3,0-2.7-0.2-3.9-0.7c-1-0.4-1.9-1.2-2.4-2.2c-0.6-1.7-0.9-3.6-0.8-5.4
	v-22h-4.6v-3h4.6v-8.4l3.9-2.5v10.9h6.2v2.9h-6.2V71c0,1.2,0.1,2.3,0.3,3.4c0.1,0.7,0.6,1.3,1.2,1.7c0.7,0.4,1.5,0.6,2.3,0.6
	c1,0,2.1-0.2,3.1-0.4L227.5,79.4z M175.3,70.5l4-0.7c0.4,2.2,1.6,4.2,3.4,5.5c1.9,1.2,4.1,1.8,6.3,1.7c1.6,0,3.1-0.3,4.6-0.9
	c1.2-0.4,2.2-1.2,3-2.2c0.7-0.9,1.1-2.1,1.1-3.3c0-1.1-0.4-2.2-1.2-3c-0.9-0.9-2-1.6-3.2-2c-1.8-0.6-3.7-1.1-5.6-1.5
	c-7.5-1.6-11.3-4.6-11.3-9.2c-0.1-2.7,1.2-5.2,3.3-6.7c2.5-1.7,5.4-2.6,8.4-2.5c6.7,0,10.8,2.9,12.3,8.7l-3.8,0.6
	c-0.4-1.9-1.4-3.5-2.9-4.8c-1.7-1-3.6-1.4-5.5-1.3c-1.4,0-2.8,0.2-4.2,0.7c-1.1,0.4-2,1-2.8,1.8c-0.6,0.8-0.9,1.8-0.9,2.8
	s0.3,1.9,0.8,2.7c0.9,0.9,2,1.6,3.2,2c2,0.7,4,1.3,6.1,1.7c4.7,1.1,7.7,2.4,9.2,3.9c1.4,1.5,2.1,3.4,2.1,5.4
	c0.1,1.9-0.5,3.8-1.5,5.3c-1.1,1.6-2.7,2.8-4.5,3.5c-2.2,0.9-4.5,1.3-6.9,1.3c-1.6,0-3.1-0.1-4.6-0.5c-1.3-0.3-2.6-0.8-3.8-1.5
	s-2.2-1.6-3-2.7C176.4,74,175.7,72.3,175.3,70.5z M162.3,79.4h-3.9v-4.9c-2.9,3.7-6.5,5.6-10.6,5.6c-7.5,0-11.2-4-11.2-12.1V46.6
	h3.9V67c0,3.6,0.7,6.1,2.1,7.6c1.5,1.5,3.5,2.4,5.6,2.3c1.5,0,3-0.3,4.3-1c1.4-0.7,2.6-1.7,3.6-3c1.1-1.3,1.7-2.9,2-4.6
	c0.3-2.5,0.4-4.9,0.4-7.4V46.6h3.9L162.3,79.4z M110.4,92.1l0.8-3.3c0.8,0.2,1.6,0.3,2.4,0.3c0.7,0,1.4-0.1,2.1-0.5
	c0.6-0.4,1-0.9,1.3-1.5c0.4-1.5,0.6-3,0.5-4.5v-36h3.9v35.5c0,1.9,0,3.4-0.1,4.5s-0.4,2.2-0.9,3.1c-0.5,1-1.3,1.8-2.2,2.3
	c-1.1,0.6-2.4,0.8-3.6,0.8C113.1,92.7,111.7,92.4,110.4,92.1L110.4,92.1z M121.3,39.8h-3.9v-5.7h3.9V39.8z"/>
<path class="st2" d="M299.7,91.8c0,1,0,2.8,0,3.3h2.3c0.6,0,1.2-0.4,1.5-0.9c0.5-0.7,0.8-1.6,0.7-2.4c0.1-0.9-0.2-1.7-0.7-2.4
	c-0.4-0.5-1-0.8-1.6-0.8c-0.7,0-1.4,0-2.3,0C299.7,90,299.7,91,299.7,91.8 M299.7,96.1h-1.3V84.5h1.4v3c0.9,0,1.4,0,2.3,0
	c0.5,0,1,0.1,1.5,0.3c0.5,0.2,0.8,0.5,1.2,0.9c0.3,0.4,0.6,0.9,0.7,1.4c0.2,0.6,0.3,1.1,0.3,1.7c0.1,1.2-0.3,2.4-1.1,3.3
	c-0.6,0.7-1.5,1.1-2.5,1C301.3,96,300.5,96.1,299.7,96.1L299.7,96.1z M289.5,96.1v-1.3c-0.6,0.9-1.6,1.5-2.7,1.4
	c-0.5,0-1-0.1-1.4-0.3c-0.4-0.2-0.7-0.4-1-0.7c-0.2-0.3-0.4-0.7-0.4-1.1c-0.1-0.4-0.1-0.9-0.1-1.3v-5.2h1.5v4.7c0,0.5,0,1,0.1,1.5
	c0.1,0.4,0.3,0.7,0.6,0.9c0.3,0.2,0.7,0.3,1.1,0.3s0.8-0.1,1.2-0.3c0.4-0.2,0.6-0.5,0.8-0.9c0.2-0.5,0.3-1.1,0.2-1.7v-4.5h1.4V96
	L289.5,96.1L289.5,96.1z M274.9,96.1V84.5h1.5v11.6H274.9z M267.1,93l1.4,0.2c-0.1,0.9-0.5,1.7-1.2,2.3c-0.7,0.6-1.5,0.8-2.4,0.8
	c-1.1,0-2.1-0.4-2.8-1.1c-0.8-0.9-1.1-2.1-1.1-3.2c0-0.8,0.1-1.6,0.5-2.4c0.3-0.7,0.8-1.2,1.4-1.5s1.3-0.5,2-0.5
	c0.8,0,1.6,0.2,2.3,0.7c0.6,0.5,1,1.2,1.1,2l-1.4,0.2c-0.1-0.5-0.3-0.9-0.7-1.3c-0.3-0.3-0.8-0.4-1.2-0.4c-0.7,0-1.3,0.3-1.8,0.8
	c-0.5,0.7-0.8,1.6-0.7,2.4c-0.1,0.9,0.2,1.7,0.6,2.5c0.4,0.5,1.1,0.8,1.7,0.8c0.5,0,1-0.2,1.4-0.5C266.8,94.2,267,93.6,267.1,93z
	 M239.1,91.1h4.7c0-0.6-0.2-1.1-0.5-1.6c-0.4-0.5-1.1-0.8-1.8-0.8c-0.6,0-1.2,0.2-1.7,0.7C239.3,89.8,239.1,90.4,239.1,91.1
	L239.1,91.1z M243.8,93.4l1.5,0.2c-0.2,0.8-0.6,1.5-1.3,2s-1.6,0.7-2.4,0.7c-1.1,0.1-2.2-0.4-3-1.1c-0.8-0.9-1.2-2-1.1-3.2
	c-0.1-1.2,0.3-2.4,1.1-3.3c0.7-0.8,1.8-1.2,2.9-1.2c1,0,2.1,0.4,2.8,1.2c0.8,0.9,1.2,2.1,1.1,3.2c0,0.1,0,0.2,0,0.4H239
	c0,0.8,0.3,1.5,0.8,2.1c0.5,0.5,1.1,0.8,1.8,0.7c0.5,0,1-0.1,1.4-0.4C243.3,94.3,243.6,93.9,243.8,93.4L243.8,93.4z M226.8,96.1
	l-3.2-8.4h1.5l1.8,5.1c0.2,0.5,0.4,1.1,0.5,1.7c0.1-0.4,0.3-1,0.5-1.6l1.9-5.2h1.5l-3.2,8.4H226.8z M215.5,96.1v-8.4h1.4v8.4H215.5z
	 M215.5,86.1v-1.6h1.4v1.6H215.5z M201.4,93.6l1.4-0.2c0,0.5,0.3,1,0.7,1.3s1,0.5,1.5,0.4c0.5,0,1-0.1,1.5-0.4
	c0.3-0.2,0.5-0.6,0.5-0.9s-0.2-0.6-0.4-0.8c-0.5-0.2-1-0.4-1.5-0.5c-0.7-0.2-1.5-0.4-2.2-0.7c-0.8-0.3-1.2-1.1-1.2-1.9
	c0-0.3,0.1-0.7,0.3-1s0.4-0.6,0.7-0.8c0.3-0.2,0.6-0.3,0.9-0.4c0.4-0.1,0.8-0.2,1.3-0.2c0.6,0,1.2,0.1,1.8,0.3
	c0.4,0.1,0.8,0.4,1.1,0.8s0.4,0.8,0.5,1.3l-1.4,0.2c0-0.4-0.2-0.7-0.5-1c-0.4-0.3-0.8-0.4-1.3-0.4s-1,0.1-1.4,0.3
	c-0.3,0.2-0.4,0.5-0.4,0.8c0,0.2,0.1,0.4,0.2,0.5c0.1,0.2,0.3,0.3,0.5,0.4c0.1,0.1,0.6,0.2,1.3,0.4c0.7,0.2,1.4,0.4,2.1,0.7
	c0.4,0.2,0.7,0.4,1,0.8c0.2,0.4,0.4,0.8,0.4,1.2c0,0.5-0.1,0.9-0.4,1.3c-0.3,0.4-0.7,0.8-1.2,1c-0.6,0.2-1.2,0.4-1.8,0.3
	c-0.9,0.1-1.8-0.2-2.5-0.7C201.9,95.2,201.5,94.4,201.4,93.6L201.4,93.6z M193.1,96.1v-1.3c-0.6,0.9-1.6,1.5-2.7,1.4
	c-0.5,0-1-0.1-1.4-0.3c-0.4-0.2-0.7-0.4-1-0.7c-0.2-0.3-0.4-0.7-0.5-1.1s-0.1-0.9-0.1-1.3v-5.2h1.4v4.7c0,0.5,0,1,0.1,1.5
	c0.1,0.4,0.3,0.7,0.6,0.9c0.3,0.2,0.7,0.3,1.1,0.3c0.4,0,0.8-0.1,1.2-0.3c0.4-0.2,0.6-0.5,0.8-0.9c0.2-0.5,0.3-1.1,0.2-1.7v-4.5h1.4
	V96L193.1,96.1L193.1,96.1z M178.5,96.1V84.5h1.4v11.6H178.5z M170.6,93l1.4,0.2c-0.1,0.9-0.5,1.7-1.2,2.3c-0.7,0.6-1.5,0.8-2.3,0.8
	c-1.1,0-2.1-0.4-2.8-1.1c-0.8-0.9-1.1-2.1-1.1-3.2c0-0.8,0.1-1.6,0.5-2.4c0.3-0.7,0.8-1.2,1.4-1.5c0.6-0.3,1.3-0.5,2-0.5
	c0.8,0,1.6,0.2,2.3,0.7c0.6,0.5,1,1.2,1.1,2l-1.4,0.2c-0.1-0.5-0.3-0.9-0.7-1.3c-0.3-0.3-0.8-0.4-1.2-0.4c-0.7,0-1.3,0.3-1.8,0.8
	c-0.5,0.7-0.8,1.6-0.7,2.4c-0.1,0.9,0.2,1.7,0.7,2.5c0.4,0.5,1.1,0.8,1.7,0.8c0.5,0,1-0.2,1.4-0.5C170.3,94.2,170.5,93.6,170.6,93z
	 M150.5,96.1l3.1-4.4l-2.9-4h1.8l1.4,2c0.2,0.4,0.4,0.7,0.6,0.9c0.2-0.3,0.5-0.6,0.6-0.9l1.4-2h1.8l-2.9,4.1l3.1,4.4h-1.7l-1.8-2.6
	l-0.4-0.6l-2.3,3.2L150.5,96.1z M138.2,91.1h4.7c0-0.6-0.2-1.1-0.5-1.6c-0.4-0.5-1.1-0.8-1.8-0.8c-0.6,0-1.2,0.2-1.7,0.7
	C138.4,89.8,138.2,90.4,138.2,91.1L138.2,91.1z M142.9,93.4l1.5,0.2c-0.2,0.8-0.7,1.5-1.3,2c-0.7,0.5-1.6,0.7-2.4,0.7
	c-1.1,0.1-2.2-0.3-3-1.1c-0.8-0.9-1.2-2-1.1-3.2c-0.1-1.2,0.3-2.4,1.1-3.3c0.7-0.8,1.8-1.2,2.9-1.2c1,0,2.1,0.4,2.8,1.2
	c0.8,0.9,1.2,2.1,1.1,3.2v0.4H138c0,0.8,0.3,1.5,0.8,2.1c0.5,0.5,1.1,0.8,1.8,0.7c0.5,0,1-0.1,1.4-0.4
	C142.4,94.4,142.7,93.9,142.9,93.4L142.9,93.4z"/>
<rect x="267.2" y="46.6" class="st1" width="8.9" height="32.8"/>
<rect x="267.2" y="32.7" class="st1" width="8.9" height="7.9"/>
</svg>
